<svg id="Layer_1" data-name="Layer 1" xmlns="http://www.w3.org/2000/svg" viewBox="0 0 420 400"><defs><style>.cls-1{fill:#c8102e;}.cls-2{fill:#fff;}</style></defs><title>Interlocking UH Red 2</title><polygon class="cls-1" points="315.15 206.69 315.15 167.67 258.17 167.67 258.17 139.01 270.04 139.01 270.04 100 196.67 100 196.67 139.01 207.74 139.01 207.74 167.67 167.14 167.67 167.14 139.01 178.22 139.01 178.22 100 104.85 100 104.85 139.01 116.72 139.01 116.72 210.24 139.55 229.89 162.63 229.89 162.63 261 150.76 261 150.76 300 224.13 300 224.13 261 213.06 261 213.06 253.81 252.85 253.81 252.85 261 241.78 261 241.78 300 315.15 300 315.15 261 303.28 261 303.28 206.69 315.15 206.69"/><path class="cls-2" d="M309.6,201.14V173.22h-57V133.46h11.86V105.55H202.22v27.91h11.07v39.76h-51.7V133.46h11.08V105.55H110.4v27.91h11.87v74.23l19.34,16.64h26.57v42.23H156.31v27.89h62.27V266.56H207.5V248.27h50.9v18.29H247.34v27.89H309.6V266.56H297.73V201.14ZM240.71,218.7l17.34-15.38V218.7Z"/><polygon class="cls-1" points="218.57 201.13 207.5 201.13 207.5 219.06 231.82 219.06 247.34 205.27 247.34 128.19 259.21 128.19 259.21 110.82 207.5 110.82 207.5 128.19 218.57 128.19 218.57 201.13"/><polygon class="cls-1" points="168.19 201.13 156.32 201.13 156.32 128.19 167.39 128.19 167.39 110.82 115.68 110.82 115.68 128.19 127.55 128.19 127.55 205.27 143.56 219.06 168.19 219.06 168.19 201.13"/><polygon class="cls-1" points="304.32 195.87 304.32 178.5 252.61 178.5 252.61 195.87 263.68 195.87 263.68 224.33 202.23 224.33 202.23 195.87 213.31 195.87 213.31 178.5 161.59 178.5 161.59 195.87 173.46 195.87 173.46 271.83 161.59 271.83 161.59 289.18 213.31 289.18 213.31 271.83 202.23 271.83 202.23 242.99 263.68 242.99 263.68 271.83 252.61 271.83 252.61 289.18 304.32 289.18 304.32 271.83 292.46 271.83 292.46 195.87 304.32 195.87"/><path class="cls-1" d="M322.338,293.7v-.034a6.338,6.338,0,0,1,12.676-.035v.035a6.338,6.338,0,0,1-12.676.034Zm11.292-.034v-.031a4.955,4.955,0,1,0-9.909.031v.03a4.955,4.955,0,1,0,9.909-.03Zm-7.417-3.128h2.771A2.739,2.739,0,0,1,331,291.2a1.821,1.821,0,0,1,.511,1.356v.031a1.859,1.859,0,0,1-1.223,1.817l1.425,2.064h-1.906l-1.208-1.8h-.727v1.8h-1.657Zm2.741,2.85c.573,0,.9-.262.9-.693v-.032c0-.476-.355-.707-.914-.707H327.87v1.432Z"/></svg>