<svg xmlns="http://www.w3.org/2000/svg" viewBox="0 0 340 150"><defs><style type="text/css">.st0{fill:#C8102E;}.st1{fill:#666666;}</style></defs><polygon class="st0" points="62.775,84.625 48.213,84.625 48.213,68.753 40.541,68.753 40.541,108.068 48.213,108.068 48.213,91.587 62.775,91.587 62.775,108.068 70.447,108.068 70.447,68.753 62.775,68.753 "/><path class="st0" d="M98.398,68.038c-11.7,0-20.524,8.846-20.524,20.576v0.048c0,11.282,8.993,20.12,20.474,20.12 c11.565,0,20.624-8.949,20.624-20.374C118.972,76.986,109.935,68.038,98.398,68.038z M111.3,88.46c0,6.567-4.787,13.36-12.798,13.36 c-7.414,0-13.004-5.766-13.004-13.413V88.36c0-7.492,5.689-13.36,12.952-13.36C106.494,75,111.3,81.844,111.3,88.46z"/><path class="st0" d="M154.171,68.753h-7.622v24.335c0,2.39,0,4.278-1.31,6.245c-0.919,1.558-2.781,2.488-4.981,2.488 c-2.163,0-4.066-0.976-5.093-2.613c-1.247-1.982-1.247-3.808-1.247-6.12V68.753h-7.668v24.326c-0.049,4.34,0.25,8.542,4.369,12.207 c3.306,3.244,8.253,3.496,9.691,3.496c3.686,0,6.976-1.219,9.49-3.502c3.919-3.257,4.417-7.789,4.371-12.192V68.753z"/><path class="st0" d="M177.985,85.285l-0.549-0.203c-5.894-2.175-7.758-2.998-7.758-5.833c0-2.893,2.506-4.454,4.865-4.454 c3.435,0,4.35,2.219,4.827,4.617l0.134,0.672h7.473l-0.052-0.884c-0.491-8.239-6.868-11.162-12.18-11.162 c-3.698,0-7.179,1.37-9.55,3.759c-2.075,2.091-3.16,4.83-3.137,7.913c0,7.716,7.069,10.028,10.058,11.006l1.041,0.38 c4.599,1.673,6.81,2.616,6.81,5.76c0,2.85-2.432,5.169-5.423,5.169c-0.851,0-5.113-0.289-5.525-5.992l-0.057-0.774h-7.575 l0.011,0.846c0.106,7.701,5.285,12.678,13.195,12.678c8.976,0,12.993-6.144,12.993-12.233 C187.587,89.914,182.862,87.354,177.985,85.285z"/><polygon class="st0" points="191.561,75.711 200.206,75.711 200.206,108.068 207.878,108.068 207.878,75.711 216.528,75.711 216.528,68.753 191.561,68.753 "/><path class="st0" d="M239.394,68.038c-11.699,0-20.522,8.846-20.522,20.576v0.048c0,11.282,8.991,20.12,20.47,20.12 c11.567,0,20.628-8.949,20.628-20.374C259.971,76.986,250.933,68.038,239.394,68.038z M239.499,101.821 c-7.414,0-13.004-5.766-13.004-13.413V88.36c0-7.492,5.689-13.36,12.952-13.36c8.045,0,12.852,6.844,12.852,13.46 C252.299,95.028,247.511,101.821,239.499,101.821z"/><polygon class="st0" points="292.529,68.753 292.624,95.512 274.37,68.753 267.449,68.753 267.449,108.068 274.921,108.068 274.825,81.244 293.232,108.068 300,108.068 300,68.753 "/><path class="st1" d="M45.692,58.024c1.597,0,2.889-0.545,3.849-1.419c1.425-1.184,1.775-2.827,1.752-4.969v-10.11h-2.561v10.11 c0,1.049,0,1.947-0.613,2.868c-0.437,0.743-1.335,1.245-2.451,1.245c-1.117,0-2.01-0.528-2.494-1.291 c-0.589-0.941-0.589-1.816-0.589-2.822v-10.11h-2.585v10.11c-0.019,1.966,0.175,3.566,1.772,4.989 C42.87,57.698,44.533,58.024,45.692,58.024z"/><polygon class="st1" points="78.852,41.526 76.357,41.526 76.401,53.844 67.999,41.526 65.574,41.526 65.574,57.72 68.064,57.72 68.02,45.378 76.491,57.72 78.852,57.72 "/><rect x="93.194" y="41.526" class="st1" width="2.584" height="16.194"/><polygon class="st1" points="115.968,54.567 111.287,41.526 108.618,41.526 114.679,57.72 117.236,57.72 123.345,41.526 120.676,41.526 "/><polygon class="st1" points="145.256,55.441 138.78,55.441 138.78,50.652 145.174,50.652 145.174,48.396 138.78,48.396 138.78,43.801 145.256,43.801 145.256,41.526 136.2,41.526 136.2,57.72 145.256,57.72 "/><path class="st1" d="M161.62,43.801h2.21c1.158,0,2.056,0.087,2.755,0.524c0.856,0.569,1.377,1.643,1.377,2.736 c0,1.052-0.369,1.992-1.115,2.651c-0.767,0.656-2.121,0.7-3.237,0.7h-0.569l4.441,7.309h2.736l-3.809-6.019 c1.249-0.217,2.299-0.613,3.131-1.773c0.593-0.854,0.921-1.947,0.921-3.088c0-1.814-0.813-3.498-2.147-4.374 c-0.854-0.589-2.166-0.941-4.704-0.941h-4.574V57.72h2.584V43.801z"/><path class="st1" d="M193.466,53.122c0-2.623-1.882-3.652-3.894-4.504c-2.605-0.965-3.805-1.358-3.805-2.936 c0-1.377,1.134-2.275,2.447-2.275c1.86,0,2.258,1.399,2.431,2.275h2.538c-0.196-3.326-2.803-4.465-4.878-4.465 c-2.538,0-5.123,1.643-5.104,4.663c0,3.042,2.825,3.983,4.096,4.398c2.075,0.769,3.611,1.182,3.611,2.977 c0,1.445-1.252,2.581-2.694,2.581c-0.852,0-2.56-0.482-2.738-2.907h-2.557c0.046,3.127,2.101,5.095,5.319,5.095 C191.695,58.024,193.466,55.749,193.466,53.122z"/><rect x="207.068" y="41.526" class="st1" width="2.581" height="16.194"/><polygon class="st1" points="226.167,57.72 228.744,57.72 228.744,43.801 232.466,43.801 232.466,41.526 222.445,41.526 222.445,43.801 226.167,43.801 "/><polygon class="st1" points="249.698,57.72 252.283,57.72 252.283,51.962 257.357,41.526 254.558,41.526 250.991,49.535 247.425,41.526 244.624,41.526 249.698,51.962 "/><path class="st1" d="M285.088,55.082c3.181,0,5.039-2.451,5.039-4.987c0-2.538-1.858-5.002-5.039-5.002 c-3.179,0-5.036,2.464-5.036,4.984v0.017C280.052,52.631,281.909,55.082,285.088,55.082z M281.855,50.095c0-1.89,1.43-3.3,3.233-3.3 c1.81,0,3.233,1.41,3.233,3.3c0,1.895-1.423,3.303-3.233,3.303c-1.803,0-3.233-1.408-3.233-3.285V50.095z"/><path class="st1" d="M296.23,54.821h1.808v-8.046h1.738V45.37h-1.738v-0.556c0-1.651,1.128-1.651,1.738-1.669v-1.423 c-1.338,0.017-3.546,0.156-3.546,3.005v0.643h-1.284v1.406h1.284V54.821z"/></svg>